<svg width="579" height="1167" viewBox="0 0 579 1167" fill="none" xmlns="http://www.w3.org/2000/svg">
<path id="topClothes" d="M296.846 521.687C265.853 526.855 234.994 527.79 204.077 527.743C194.274 527.727 184.47 527.496 174.444 527.08C174.83 526.53 175.595 526.413 176.02 525.971C178.408 523.486 180.715 520.922 183.05 518.386C180.047 517.041 177.132 514.813 174.026 514.502C159.182 513.017 145.014 509.008 131.094 503.935C129.484 503.348 127.664 502.255 126.8 500.863C115.054 481.95 103.459 462.943 91.8801 443.474C91.0217 428.525 90.1106 414.061 89.1996 399.596C87.9072 400.477 87.4581 401.351 87.0577 402.247C83.7701 409.605 83.0659 410.002 74.8706 409.132C74.2147 409.062 73.5474 409.099 72.4808 408.963C70.1221 408.504 68.1488 408.255 66.2171 407.821C45.5058 403.165 26.3616 394.683 8.13686 383.967C-1.51072 376.093 -1.6829 376.024 2.97042 364.507C15.6899 333.029 29.7187 302.174 48.1095 273.517C52.0543 267.37 56.7057 261.675 61.0722 255.801C70.2942 243.397 84.0353 238.095 97.6869 232.771C118.423 224.686 139.238 216.803 160.561 209.022C174.18 224.281 196.362 223.178 209.125 217.068C213.012 215.208 216.581 212.606 216.851 207.573C240.873 209.518 264.959 210.916 288.875 213.747C295.886 214.577 303.031 218.573 309.052 222.678C329.795 236.82 345.697 255.985 360.744 275.713C371.92 290.366 381.978 305.871 392.824 321.588C400.734 335.621 400.834 336.638 389.771 347.096C372.8 363.139 353.422 375.545 331.591 384.006C327.213 385.538 324.488 383.741 322.158 379.975C317.263 372.065 312.041 364.357 306.943 356.573C306.162 355.38 305.327 354.223 305.032 353.797C307.083 392.773 309.316 432.283 311.141 471.813C311.639 482.592 311.249 493.445 310.659 504.232C309.899 518.126 309.635 518.112 296.846 521.687Z" fill="#00FF00"/>
<path id="bottomClothes" d="M101.805 1074.51C94.7104 1073.31 92.7078 1068.72 92.7591 1062.04C93.1349 1013.07 93.2773 964.098 93.6476 915.128C93.7483 901.802 94.3263 888.479 94.7723 875.158C96.2109 832.199 97.575 789.237 99.1872 746.284C100.662 706.999 102.378 667.721 104.07 628.444C105.388 597.822 106.833 567.206 108.458 536.368C109.462 537.608 110.056 539.196 111.027 540.504C116.402 547.74 121.653 555.09 127.47 561.959C128.773 563.497 132.147 563.386 134.607 563.804C136.31 564.094 138.216 563.599 139.794 564.143C143.135 565.292 145.109 564.899 147.069 561.974C147.079 561.941 147.003 561.974 147.171 561.496C151.542 562.678 155.334 562.148 158.795 559.105C159.545 558.446 160.779 557.882 161.723 557.973C169.229 558.696 172.877 553.847 175.715 548.179C178.054 543.507 176.201 538.287 171.187 536.952C167.956 536.093 164.177 537.296 159.78 537.643C158.162 535.349 155.889 532.127 153.812 528.701C154.129 528.352 154.251 528.208 154.807 528.097C161.4 527.836 167.558 527.542 174.192 527.306C184.47 527.496 194.274 527.727 204.077 527.743C234.994 527.79 265.853 526.855 296.445 521.811C298.275 555.058 300.059 588.307 301.947 621.55C304.44 665.428 307.049 709.3 309.541 753.178C311.07 780.106 312.418 807.043 313.944 833.971C316.101 872.032 318.37 910.087 320.545 948.147C322.017 973.91 323.414 999.678 324.835 1025.44C325.532 1038.08 326.062 1050.72 326.982 1063.34C327.256 1067.1 325.951 1068.73 322.494 1069.63C318.152 1070.75 313.915 1072.28 308.852 1073.73C306.948 1074.1 305.831 1074.4 304.699 1074.63C287.418 1078.08 269.974 1078.93 252.413 1077.86C249.275 1077.5 246.097 1076.64 243.007 1076.88C237.01 1077.36 235.996 1074.28 235.66 1069.17C233.519 1036.61 230.917 1004.09 228.826 971.534C226.094 929.002 223.621 886.452 221.181 843.902C219.589 816.142 218.281 788.365 216.797 760.598C214.613 719.698 212.367 678.801 210.189 637.901C209.605 626.939 209.171 615.968 208.671 605.036C202.509 604.525 201.325 605.438 201.118 611.167C200.375 631.805 199.689 652.445 199.002 673.084C197.523 717.527 196.118 761.972 194.566 806.412C193.351 841.195 192.09 875.978 190.616 910.751C188.754 954.672 186.696 998.584 184.623 1042.5C184.223 1050.97 183.285 1059.42 182.755 1067.89C182.502 1071.94 180.83 1074.54 176.665 1075.09C169.422 1076.04 162.171 1076.93 154.003 1077.84C148.626 1077.89 144.144 1078.27 139.718 1077.93C127.068 1076.94 114.441 1075.67 101.805 1074.51Z" fill="#FF0000"/>
<path d="M153.856 1082.54C159.181 1082.81 163.266 1085.42 166.769 1089.25C174.512 1097.72 182.299 1106.16 190.099 1114.58C191.113 1115.67 192.209 1116.74 193.434 1117.58C205.776 1126 210.129 1138.21 209.968 1152.51C209.867 1161.48 208.107 1163.88 199.045 1164.55C183.959 1165.68 168.811 1166.81 153.707 1166.61C136.439 1166.38 119.172 1164.94 101.944 1163.54C94.3454 1162.93 92.9958 1161.59 92.4077 1153.95C90.8169 1133.29 91.5862 1112.7 96.601 1092.47C97.1065 1090.43 98.9103 1088.72 100.671 1087.06C103.206 1089.25 105.197 1091.22 107.154 1093.22C112.448 1098.64 119.651 1099.23 124.808 1094.28C132.967 1086.46 142.513 1082.35 153.856 1082.54Z" fill="#AAAAAA"/>
<path d="M309.57 1079.72C338.878 1091.03 368.217 1102.26 397.481 1113.68C414.002 1120.13 422.346 1133.8 420.916 1151.36C420.354 1158.26 419.19 1160.17 412.383 1160.64C389.827 1162.23 367.251 1164.06 344.659 1164.46C319.879 1164.9 295.068 1164.05 270.281 1163.36C262.337 1163.14 254.378 1161.94 246.515 1160.65C236.457 1159 233.333 1155.07 232.893 1144.83C232.262 1130.16 235.773 1116.11 239.455 1102.11C240.722 1097.29 242.4 1092.57 243.709 1087.77C244.8 1083.76 247.202 1081.45 251.971 1081.11C255.15 1083.26 257.932 1085.11 260.219 1087.44C265.686 1093.01 272.274 1095.31 279.738 1093.66C285.333 1092.42 290.883 1090.49 296.078 1088.07C300.837 1085.85 305.092 1082.55 309.57 1079.72Z" fill="#AAAAAA"/>
<path d="M309.547 1079.4C305.092 1082.55 300.837 1085.85 296.078 1088.07C290.883 1090.49 285.333 1092.42 279.738 1093.66C272.274 1095.31 265.686 1093.01 260.219 1087.44C257.932 1085.11 255.15 1083.26 252.332 1081.02C252.16 1080.1 252.25 1079.35 252.377 1078.23C269.974 1078.93 287.418 1078.08 304.699 1074.63C305.831 1074.4 306.948 1074.1 308.481 1073.85C309.102 1075.61 309.313 1077.35 309.547 1079.4Z" fill="#FFD5A4"/>
<path d="M153.878 1082.17C142.513 1082.35 132.967 1086.46 124.808 1094.28C119.651 1099.23 112.448 1098.64 107.154 1093.22C105.197 1091.22 103.206 1089.25 101.019 1087.01C101.112 1082.95 101.417 1079.14 101.763 1074.92C114.441 1075.67 127.068 1076.94 139.718 1077.93C144.144 1078.27 148.626 1077.89 153.563 1077.93C153.996 1079.27 153.948 1080.53 153.878 1082.17Z" fill="#FFD5A4"/>
<path d="M8.03204 384.417C26.3616 394.683 45.5057 403.165 66.217 407.821C68.1488 408.255 70.1221 408.504 72.4166 409.286C72.7987 411.12 72.3315 412.819 72.9608 413.847C79.1453 423.948 85.5123 433.938 91.8275 443.959C103.459 462.943 115.054 481.95 126.8 500.863C127.664 502.255 129.484 503.348 131.094 503.935C145.014 509.008 159.182 513.017 174.026 514.502C177.132 514.813 180.047 517.041 183.05 518.386C180.715 520.922 178.408 523.486 176.02 525.971C175.595 526.413 174.83 526.53 173.97 527.022C167.558 527.542 161.4 527.836 154.594 528.009C153.837 528.227 153.726 528.566 153.616 528.905C155.889 532.127 158.162 535.349 159.78 537.643C164.177 537.296 167.956 536.093 171.187 536.952C176.201 538.287 178.054 543.507 175.715 548.179C172.877 553.847 169.229 558.696 161.723 557.973C160.779 557.882 159.545 558.446 158.795 559.105C155.334 562.148 151.542 562.678 147.593 561.449C147.834 561.515 147.823 561.15 147.812 560.786C147.561 561.193 147.311 561.6 147.06 562.007C145.109 564.899 143.135 565.292 139.794 564.143C138.216 563.599 136.31 564.094 134.607 563.804C132.147 563.386 128.773 563.497 127.47 561.959C121.653 555.09 116.402 547.74 111.027 540.504C110.056 539.196 109.462 537.608 108.491 535.901C106.3 529.365 102.795 524.181 98.1798 519.368C72.8335 492.938 47.9207 466.103 25.7252 436.903C21.7064 431.616 18.1711 425.962 14.3815 420.499C6.8183 409.597 4.77325 397.705 8.03204 384.417Z" fill="#FFD5A4"/>
<path d="M541.387 199.636C543.992 197.057 547.708 193.173 551.208 196.234C554.951 199.509 549.872 205.152 549.872 205.152L532.305 227.08L533.372 227.652L552.708 208.751C552.708 208.751 556.898 204.755 559.394 203.636C561.162 202.843 564.075 202.823 565.565 203.82C566.538 204.473 566.695 208.091 565.805 209.465C562.473 214.605 562.372 214.652 562.372 214.652L539.521 240.756L539.227 241.507L539.372 241.652L562.872 222.652C562.872 222.652 564.691 220.989 569.273 218.384C570.48 217.698 573.653 218.092 574.071 218.923C574.801 220.373 574.824 223.143 573.865 224.314L571.372 227.152L553.936 245.493L553.392 246.46H554.372L569.888 238.425C572.498 237.416 578.603 237.688 578.603 237.688C578.603 237.688 577.345 244.075 575.434 245.988C567.915 253.515 559.865 260.512 552.026 267.72C545.284 273.918 538.681 280.275 531.791 286.303C526.066 291.311 519.284 294.111 511.566 293.066C505.406 292.232 500.938 294.754 497.001 298.952C478.203 318.998 459.827 339.462 440.488 358.973C426.206 373.381 410.819 386.715 395.614 400.178C390.927 404.328 385.356 407.557 379.95 410.808C370.169 416.69 360.641 415.804 351.571 408.983C342.997 402.534 337.061 393.949 331.73 384.381C353.422 375.545 372.801 363.139 389.772 347.096C400.834 336.638 400.734 335.62 393.075 321.886C417.821 305.691 442.672 289.894 467.358 273.843C478.285 266.738 485.38 256.335 490.825 244.677C494.055 237.762 491.904 231.05 490.706 224.177C490.211 221.336 491.114 218.251 491.381 215.277C494.197 216.695 497.769 217.464 499.665 219.672C503.184 223.769 505.724 228.708 508.947 233.726C511.9 230.493 515.117 226.837 518.475 223.315C526.053 215.365 533.583 207.361 541.387 199.636Z" fill="#FFD5A4"/>
<path fill-rule="evenodd" clip-rule="evenodd" d="M213.797 57.2874C219.744 55.3629 224.979 56.3852 228.668 61.9856C230.769 65.1745 233.046 68.2568 234.997 71.5335C243.281 85.4441 247.732 100.639 249.831 116.597C249.597 127.865 250.134 139.214 248.96 150.383C246.865 170.311 235.623 183.848 216.576 191.838C198.63 197.505 181.799 195.57 165.275 188.445C180.181 201.675 197.563 207.293 216.985 207.057C216.976 207.067 216.781 207.282 216.816 207.426C216.58 212.606 213.012 215.208 209.125 217.069C196.362 223.179 174.18 224.281 160.912 208.928C160.788 201.652 160.967 194.656 160.82 187.667C160.793 186.333 159.745 184.758 158.722 183.747C152.828 177.927 146.852 172.185 140.761 166.573C139.79 165.678 137.981 164.98 136.747 165.207C131.554 166.165 127.055 165.053 123.575 161.129C117.542 154.323 113.764 146.365 113.964 137.177C114.029 134.186 116.201 131.242 118.004 127.978C123.942 127.68 129.285 127.679 134.87 127.679C134.87 126.242 134.859 123.924 134.871 121.607C134.949 107.087 135.594 92.6042 141.066 78.9163C146.888 64.3496 158.251 59.2315 173.121 64.1028C180.637 66.5647 188.051 66.805 195.54 63.8518C201.554 61.4804 207.647 59.2778 213.797 57.2874ZM186.45 153.166C185.626 153.631 184.099 154.074 184.082 154.564C183.846 162.049 191.589 169.555 200.349 170.52C207.972 171.359 215.621 165.681 217.105 158.049C217.622 155.387 216.725 155.024 213.793 156.653C204.872 155.653 195.95 154.653 186.45 153.166ZM209.998 132.652C210.844 133.635 211.6 134.628 212.17 135.652H213.872C214.246 135.652 214.612 135.68 214.97 135.737C214.947 135.708 214.926 135.678 214.903 135.649C214.084 134.633 213.24 133.637 212.385 132.652H209.998Z" fill="#FFD5A4"/>
<path d="M250.195 116.649C247.732 100.639 243.282 85.4438 234.997 71.533C233.046 68.2562 230.769 65.1742 228.668 61.9851C224.979 56.3846 219.743 55.3622 213.797 57.2868C207.646 59.2772 201.555 61.48 195.541 63.8515C188.051 66.8049 180.637 66.5647 173.121 64.1026C158.251 59.2312 146.888 64.3496 141.066 78.9166C135.594 92.6047 134.949 107.087 134.872 121.607C134.859 123.924 134.87 126.242 134.87 127.679C129.285 127.679 123.942 127.679 118.263 127.668C105.563 104.288 102.414 79.6771 109.107 54.1599C114.16 34.8974 129.548 23.4067 147.781 24.5419C149.683 24.6604 152.045 23.1014 153.63 21.6888C165.238 11.3445 177.778 2.75808 193.617 0.594523C214.265 -2.22573 231.114 5.08871 244.827 20.3908C255.135 31.894 259.608 45.7959 261.615 60.7591C263.821 77.204 262.68 93.3437 256.746 108.894C255.616 111.852 252.668 114.117 250.195 116.649Z" fill="black"/>
<path d="M216.953 206.631C197.563 207.292 180.181 201.675 165.274 188.445C181.799 195.57 198.63 197.505 216.272 192.07C216.732 196.758 216.827 201.482 216.953 206.631Z" fill="black"/>
<path d="M214.708 156.656C216.725 155.024 217.622 155.386 217.104 158.049C215.621 165.681 207.973 171.359 200.349 170.52C191.589 169.555 183.845 162.05 184.082 154.564C184.097 154.074 185.626 153.631 186.74 153.762C189.017 156.158 190.73 158.867 193.05 159.568C197.568 160.933 202.469 160.964 207.13 161.936C211.76 162.901 214.027 161.064 214.708 156.656Z" fill="black"/>
<path d="M214.25 156.654C214.027 161.064 211.76 162.901 207.13 161.936C202.469 160.964 197.568 160.933 193.05 159.568C190.73 158.867 189.017 156.158 187.029 154.005C195.95 154.653 204.872 155.653 214.25 156.654Z" fill="white"/>
<ellipse cx="178.372" cy="121.152" rx="6.5" ry="9.5" fill="black"/>
<ellipse cx="221.372" cy="116.152" rx="6.5" ry="9.5" fill="black"/>
<path d="M151.487 104.237C159.466 94.8858 169.827 91.5773 181.161 90.393C183.452 96.2135 182.833 97.0425 177.51 98.3894C168.399 100.694 159.391 103.403 150.37 105.933C150.521 105.691 150.89 105.099 151.487 104.237Z" fill="black"/>
<path d="M218.652 88.3264C228.234 88.7375 235.956 92.0789 241.837 98.6211C233.267 97.3584 224.63 95.9183 215.945 94.8764C211.503 94.3434 213.185 91.3587 212.554 88.5093C214.725 88.4118 216.476 88.3332 218.652 88.3264Z" fill="black"/>
<path d="M212.002 144.784C215.36 139.355 212.578 135.419 208.979 131.505C207.875 130.305 207.44 128.49 207.207 126.797C209.78 129.741 212.452 132.606 214.903 135.648C218.049 139.555 214.611 141.876 212.24 144.605C211.941 144.726 212.002 144.784 212.002 144.784Z" fill="black"/>
</svg>